PathFileType	4	(X/Y/Z)	/Users/niels/Desktop/University/Third Semester/Perception and Action/Exam/Gymnastics Motion Tracking/Code for Gym Tracking/Scripts/Analyzed Data/kraft_bad_id1_1_normal_speed_Sports2D/kraft_bad_id1_1_normal_speed_Sports2D_px_person00.trc
DataRate	CameraRate	NumFrames	NumMarkers	Units	OrigDataRate	OrigDataStartFrame	OrigNumFrames
49.404761904761905	49.404761904761905	9	22	m	49.404761904761905	56	84
Frame#	Time	Hip			RHip			RKnee			RAnkle			RBigToe			RSmallToe			RHeel			LHip			LKnee			LAnkle			LBigToe			LSmallToe			LHeel			Neck			Head			Nose			RShoulder			RElbow			RWrist			LShoulder			LElbow			LWrist		
		X1	Y1	Z1	X2	Y2	Z2	X3	Y3	Z3	X4	Y4	Z4	X5	Y5	Z5	X6	Y6	Z6	X7	Y7	Z7	X8	Y8	Z8	X9	Y9	Z9	X10	Y10	Z10	X11	Y11	Z11	X12	Y12	Z12	X13	Y13	Z13	X14	Y14	Z14	X15	Y15	Z15	X16	Y16	Z16	X17	Y17	Z17	X18	Y18	Z18	X19	Y19	Z19	X20	Y20	Z20	X21	Y21	Z21	X22	Y22	Z22
56	1.1334939759036144	1.4235621763656274	-0.4951543399762825	0.0	1.4245866860626097	-0.4860837616163564	0.0	1.5404847208594201	-0.39610232358864406	0.0	1.658919176380412	-0.4674855516852849	0.0	1.6987907908159252	-0.41806160149546917	0.0	1.7070218832445943	-0.42864601745321873	0.0	1.670303837614082	-0.4872565590630822	0.0	1.4278446039649735	-0.5032296110495209	0.0	1.5386693871251031	-0.4606017704437087	0.0	1.6467516664054176	-0.5306395339074685	0.0	1.6859320548913905	-0.4856359998079984	0.0	1.6857891468807709	-0.5008121597649526	0.0	1.6589703210137976	-0.54451130390883	0.0	1.2934711504673846	-0.6635662830475008	0.0	1.2713590768977259	-0.7583045505724029	0.0	1.2534950529843956	-0.7061410492236958	0.0	1.2917227125604058	-0.6474840284264635	0.0	1.1867760155193026	-0.6718020969470004	0.0	1.1323196745838708	-0.7478748090986848	0.0	1.3005900043385268	-0.6497589518315053	0.0	1.1984491123479126	-0.6748284766861452	0.0	1.1423957381148042	-0.7445107278124905	0.0
57	1.1537349397590362	1.456497026530751	-0.5038257430223708	0.0	1.4591700870588615	-0.49588984073193565	0.0	1.5875450733018621	-0.42802559881135593	0.0	1.6951146421949026	-0.5198765112266428	0.0	1.7380758124775364	-0.4800359421783394	0.0	1.7459219233012557	-0.4906794457988553	0.0	1.7039078158604946	-0.5419943730685434	0.0	1.4595689396483786	-0.5124239753860039	0.0	1.5747943579911816	-0.49050099165174144	0.0	1.6729336475444578	-0.5773556142317161	0.0	1.7183582169016205	-0.5426094732182922	0.0	1.7165692076674708	-0.5555674612491146	0.0	1.6834585451789308	-0.5931197390576975	0.0	1.3117761700608421	-0.6547059810389664	0.0	1.2752864643576285	-0.7437710223845087	0.0	1.2673600971430117	-0.6896588780627327	0.0	1.3127968581213116	-0.6385101249618391	0.0	1.2094058775221785	-0.6545786640798203	0.0	1.1506885132917541	-0.7275009438501521	0.0	1.318955873787063	-0.6433405333041576	0.0	1.2211589955747661	-0.6596436395409836	0.0	1.1629318780861833	-0.7260937134688341	0.0
58	1.1739759036144577	1.489590087432225	-0.5155557360088902	0.0	1.4938420645888064	-0.5088506223343323	0.0	1.6308416665602468	-0.464640767272035	0.0	1.7261143685144567	-0.5741401900474393	0.0	1.7712423631641407	-0.5438843224003058	0.0	1.7785623001357245	-0.5543624863336655	0.0	1.7323835622877088	-0.5978644854299671	0.0	1.4912676775436984	-0.5247167512130062	0.0	1.6082350288325309	-0.5231694151971563	0.0	1.695611116555375	-0.6237755855020463	0.0	1.7456872591317851	-0.5989428317967912	0.0	1.742231065443084	-0.6096094057940303	0.0	1.7042452196255415	-0.641242178757045	0.0	1.33190910775206	-0.6454672662034514	0.0	1.2811732412930403	-0.7260637223278412	0.0	1.2837623799528621	-0.6713589665993064	0.0	1.3367030234127155	-0.6292989706113227	0.0	1.237364787571074	-0.634940958634022	0.0	1.1739159495607394	-0.7032930829932167	0.0	1.3388254615552437	-0.6370277697235234	0.0	1.2471216368486735	-0.6417704363622321	0.0	1.187171943242233	-0.7037321651807277	0.0
59	1.1942168674698794	1.5221849004137105	-0.5302897995542596	0.0	1.528014705370725	-0.5246563757021163	0.0	1.6702604908614391	-0.5046214562786899	0.0	1.7529533591427895	-0.628476696230862	0.0	1.799283357415146	-0.6069717123689082	0.0	1.8060599207888859	-0.6170027162335812	0.0	1.7569409431251846	-0.6530671418824916	0.0	1.5222564473445988	-0.5400991424249074	0.0	1.6387497760177447	-0.5577932637652941	0.0	1.7151571095098765	-0.6690015845365647	0.0	1.7684366323932186	-0.6528276521773483	0.0	1.763095808538698	-0.6614138290117693	0.0	1.7218107077524971	-0.6878922802817672	0.0	1.3538141447798833	-0.6360210773767395	0.0	1.289880507787248	-0.7052224193284959	0.0	1.3030913224770688	-0.6516728628610853	0.0	1.3632228834827584	-0.6201195867303827	0.0	1.2711097134915517	-0.6136901209942871	0.0	1.2023740460318983	-0.6757281849655695	0.0	1.3600988967071606	-0.6310402534989195	0.0	1.2764265238311876	-0.6222247285821443	0.0	1.2153838181137524	-0.6780907354680324	0.0
60	1.2144578313253012	1.5535293224532423	-0.547768706409129	0.0	1.561027989730141	-0.5428448204393366	0.0	1.7058792172123174	-0.5463879266004165	0.0	1.7767183512081082	-0.6810162796744096	0.0	1.823116515528313	-0.6668728129426319	0.0	1.8295960434464054	-0.6761320327126137	0.0	1.7787854220177421	-0.7058305125537099	0.0	1.5517437796387217	-0.5583606317039828	0.0	1.6660519760475287	-0.593334426040624	0.0	1.7319005169863317	-0.7121581493624195	0.0	1.7870946112593096	-0.7026029303501433	0.0	1.7795501445713027	-0.7094492482358218	0.0	1.73658441348576	-0.7321198659782823	0.0	1.3773143610406806	-0.6266286422153459	0.0	1.3020974932651073	-0.681613811648019	0.0	1.3255336092979964	-0.6311856476940545	0.0	1.391897875624239	-0.6112698545033753	0.0	1.3106510121998818	-0.5919269634645178	0.0	1.2363112358334756	-0.6456960816944726	0.0	1.3824591545685876	-0.625682817798717	0.0	1.3088121076103483	-0.6024380113978512	0.0	1.247736432487116	-0.6502714671838613	0.0
61	1.234698795180723	1.583029098641952	-0.5675680277001665	0.0	1.592398277968019	-0.5628861140378516	0.0	1.7380286576008688	-0.5883919140634775	0.0	1.7982937255462397	-0.7303011064459234	0.0	1.8432963811664906	-0.7220572154819086	0.0	1.8500663072011705	-0.7301809898003088	0.0	1.7988248225150862	-0.7548675243951455	0.0	1.5791330793142058	-0.5790834621180315	0.0	1.6900513141498756	-0.6288043170785294	0.0	1.7461596276885334	-0.7526234643617034	0.0	1.802097647030735	-0.7472218176035113	0.0	1.792016617930776	-0.7526876389700337	0.0	1.748927655232294	-0.7732718646754574	0.0	1.402208618377782	-0.6175354964199378	0.0	1.3183304384018262	-0.6558162974582054	0.0	1.3511369308126264	-0.6105325985592415	0.0	1.4221974098443346	-0.6029845862702233	0.0	1.3556558910878027	-0.5708593295399496	0.0	1.2759382804656365	-0.6142980662563624	0.0	1.4055134185996327	-0.6211625834833726	0.0	1.343726266084055	-0.5839298093878984	0.0	1.2842965970623246	-0.6215689271794494	0.0
62	1.2549397590361444	1.6103818957703755	-0.5890360918533347	0.0	1.6219162883095284	-0.5841869244426752	0.0	1.7670810966196178	-0.6292836413933995	0.0	1.818016963645777	-0.7754952854941098	0.0	1.8598998562099611	-0.7719443496392182	0.0	1.867771245403358	-0.7785343914733921	0.0	1.8173791983668757	-0.799480227674054	0.0	1.6041731906035162	-0.6015408627706939	0.0	1.7109366630077085	-0.6633254829978144	0.0	1.7582383872424099	-0.7900418249975534	0.0	1.8139111596816477	-0.7862927661745961	0.0	1.8009701308354107	-0.790710535961984	0.0	1.7591366487145907	-0.8109953210068408	0.0	1.428307823987605	-0.6088878389765568	0.0	1.3388482598170008	-0.628617640797398	0.0	1.379840312070482	-0.5903642311603017	0.0	1.4536474646815596	-0.5954013576352291	0.0	1.4054538044597262	-0.5516762300691774	0.0	1.3213311317433767	-0.5827475828172338	0.0	1.4289073727521149	-0.6174407165309492	0.0	1.3803769991508457	-0.5680467592784348	0.0	1.324910938704295	-0.5933147817468979	0.0
63	1.2751807228915661	1.635546876016755	-0.6112369729292367	0.0	1.6495787182115162	-0.6060286401751075	0.0	1.7932067993121743	-0.6679036879712275	0.0	1.8356519772347255	-0.8161656059103056	0.0	1.8728218527106226	-0.81643298230668	0.0	1.8825594324734123	-0.8210831187993415	0.0	1.8341735437357172	-0.8393106736153384	0.0	1.6268997123739073	-0.6246590900931092	0.0	1.7290624972590145	-0.696028283524162	0.0	1.7684083167276097	-0.8241444408394956	0.0	1.823056374495091	-0.8198540536108937	0.0	1.8069619308554892	-0.8235133235513754	0.0	1.7674644156870094	-0.8450472913345812	0.0	1.4554021864850581	-0.6007315828641457	0.0	1.3635965693895886	-0.6010659480123148	0.0	1.411388756148067	-0.5713560447408781	0.0	1.4858679999148299	-0.5885735162924445	0.0	1.4589234483122477	-0.5354760142730679	0.0	1.3722113259026174	-0.5523994150036053	0.0	1.4523564664153343	-0.614248529982766	0.0	1.4177858426058456	-0.5558209766579284	0.0	1.3690523925813276	-0.5668653989328418	0.0
64	1.2954216867469879	1.6587019107619694	-0.633061634890909	0.0	1.6755332509827594	-0.627569556929369	0.0	1.8163997345641538	-0.7033180256972154	0.0	1.8507786883045594	-0.8520460270393826	0.0	1.882325995132884	-0.8555829370606802	0.0	1.894378766616497	-0.8579393827894466	0.0	1.8486814922607908	-0.8741669875944863	0.0	1.6475549955209992	-0.6471966148300596	0.0	1.744826688868049	-0.7260741258373941	0.0	1.7769343939799265	-0.8546815871733963	0.0	1.830042205724475	-0.8482824975292993	0.0	1.8106072056969245	-0.851418577240634	0.0	1.7741731812749812	-0.87524141219701	0.0	1.4832758318190966	-0.5930303298599624	0.0	1.3922077343828656	-0.5743136034874217	0.0	1.4453038795427133	-0.5541276902415789	0.0	1.5185930661178688	-0.5824669909822251	0.0	1.5145620447743324	-0.5231262632608263	0.0	1.4279029354252373	-0.5246742828377892	0.0	1.4756872394056528	-0.6111956960586836	0.0	1.4550281410815447	-0.5478037697116416	0.0	1.415866225240708	-0.5434961495179936	0.0
